<?xml version="1.0" standalone="no"?>
<!DOCTYPE svg PUBLIC "-//W3C//DTD SVG 20010904//EN"
 "http://www.w3.org/TR/2001/REC-SVG-20010904/DTD/svg10.dtd">
<svg version="1.0" xmlns="http://www.w3.org/2000/svg"
 width="512.000000pt" height="512.000000pt" viewBox="0 0 512.000000 512.000000"
 preserveAspectRatio="xMidYMid meet">
<metadata>
Created by potrace 1.14, written by Peter Selinger 2001-2017
</metadata>
<g transform="translate(0.000000,512.000000) scale(0.100000,-0.100000)"
fill="#000000" stroke="none">
<path d="M241 5100 c-29 -11 -65 -27 -78 -35 -49 -33 -106 -98 -132 -154 l-26
-56 0 -1500 0 -1500 38 -70 c44 -81 104 -135 187 -167 50 -19 75 -21 302 -22
217 -1 248 -3 248 -16 0 -9 -4 -20 -9 -25 -15 -18 -69 -158 -95 -250 -86 -300
-86 -642 1 -860 86 -219 212 -354 389 -416 77 -28 216 -34 302 -14 79 19 190
69 273 125 81 55 220 194 284 285 26 39 51 74 55 78 4 4 33 2 66 -5 149 -33
306 12 420 120 70 67 117 59 239 -38 104 -84 264 -113 406 -76 23 7 29 1 63
-49 99 -150 247 -289 386 -363 110 -59 191 -83 295 -87 111 -5 169 7 264 53
244 118 390 415 389 792 0 232 -49 463 -142 673 -14 31 -26 60 -26 64 0 4 111
8 247 9 225 1 253 3 301 22 71 27 133 77 171 134 62 95 61 67 61 1116 0 653
-3 960 -11 973 -5 11 -21 24 -35 29 -23 9 -24 13 -24 109 0 96 1 99 24 105 14
3 28 17 34 33 5 16 8 175 7 378 -1 302 -4 356 -18 394 -33 85 -98 154 -187
199 l-55 27 -2280 2 c-2234 2 -2281 2 -2334 -17z"/>
</g>
</svg>
